HIERARCHY
ROOT Hips
{
	OFFSET 0.000000 0.000000 0.000000
	CHANNELS 6 Xposition Yposition Zposition Xrotation Yrotation Zrotation
	JOINT LeftUpLeg_virtual
	{
		OFFSET 0.000000 0.000000 0.000000
		CHANNELS 3 Xrotation Yrotation Zrotation
		JOINT LeftUpLeg
		{
			OFFSET 15.427100 -6.655098 0.678600
			CHANNELS 3 Xrotation Yrotation Zrotation
			JOINT LeftLeg
			{
				OFFSET 4.081073 -39.591068 13.024000
				CHANNELS 3 Xrotation Yrotation Zrotation
				JOINT LeftFoot
				{
					OFFSET -4.081074 -37.707932 -15.979700
					CHANNELS 3 Xrotation Yrotation Zrotation
					JOINT LeftToeBase
					{
						OFFSET 5.346399 -15.068900 20.645000
						CHANNELS 3 Xrotation Yrotation Zrotation
						JOINT LeftToe_End
						{
							OFFSET 2.754700 0.931300 11.300900
							CHANNELS 3 Xrotation Yrotation Zrotation
							End Site
							{
								OFFSET 0 0 0
							}
						}
					}
				}
			}
		}
	}
	JOINT RightUpLeg_virtual
	{
		OFFSET 0.000000 0.000000 0.000000
		CHANNELS 3 Xrotation Yrotation Zrotation
		JOINT RightUpLeg
		{
			OFFSET -15.569500 -6.655098 0.678600
			CHANNELS 3 Xrotation Yrotation Zrotation
			JOINT RightLeg
			{
				OFFSET -4.081825 -39.591045 13.023800
				CHANNELS 3 Xrotation Yrotation Zrotation
				JOINT RightFoot
				{
					OFFSET 4.081824 -37.707954 -15.979600
					CHANNELS 3 Xrotation Yrotation Zrotation
					JOINT RightToeBase
					{
						OFFSET -5.346400 -15.068900 20.645000
						CHANNELS 3 Xrotation Yrotation Zrotation
						JOINT RightToe_End
						{
							OFFSET -2.754700 0.931300 11.300900
							CHANNELS 3 Xrotation Yrotation Zrotation
							End Site
							{
								OFFSET 0 0 0
							}
						}
					}
				}
			}
		}
	}
	JOINT Spine_virtual
	{
		OFFSET 0.000000 0.000000 0.000000
		CHANNELS 3 Xrotation Yrotation Zrotation
		JOINT Spine
		{
			OFFSET -0.279200 12.230698 -2.892100
			CHANNELS 3 Xrotation Yrotation Zrotation
			JOINT Spine1
			{
				OFFSET -0.232667 10.192268 -1.242267
				CHANNELS 3 Xrotation Yrotation Zrotation
				JOINT Spine1_split
				{
					OFFSET -0.232667 10.192268 -1.242267
					CHANNELS 3 Xrotation Yrotation Zrotation
					JOINT Spine2
					{
						OFFSET -0.232667 10.192268 -1.242267
						CHANNELS 3 Xrotation Yrotation Zrotation
						JOINT Neck_virtual
						{
							OFFSET 0.000000 0.000000 0.000000
							CHANNELS 3 Xrotation Yrotation Zrotation
							JOINT Neck
							{
								OFFSET -0.418800 17.814194 8.416900
								CHANNELS 3 Xrotation Yrotation Zrotation
								JOINT Head
								{
									OFFSET 0.000000 7.031097 3.806800
									CHANNELS 3 Xrotation Yrotation Zrotation
									JOINT HeadTop_End
									{
										OFFSET 0.000000 24.646606 12.978600
										CHANNELS 3 Xrotation Yrotation Zrotation
										End Site
										{
											OFFSET 0 0 0
										}
									}
								}
							}
						}
						JOINT LeftShoulder_virtual
						{
							OFFSET 0.000000 0.000000 0.000000
							CHANNELS 3 Xrotation Yrotation Zrotation
							JOINT LeftShoulder
							{
								OFFSET 8.476499 7.247704 -3.868750
								CHANNELS 3 Xrotation Yrotation Zrotation
								JOINT LeftShoulder_split
								{
									OFFSET 8.476499 7.247704 -3.868750
									CHANNELS 3 Xrotation Yrotation Zrotation
									JOINT LeftArm
									{
										OFFSET 9.308998 -2.777710 0.208600
										CHANNELS 3 Xrotation Yrotation Zrotation
										JOINT LeftForeArm
										{
											OFFSET 29.972298 0.000000 0.000000
											CHANNELS 3 Xrotation Yrotation Zrotation
											JOINT LeftHand
											{
												OFFSET 26.026505 0.000000 0.000000
												CHANNELS 3 Xrotation Yrotation Zrotation
												End Site
												{
													OFFSET 0 0 0
												}
											}
										}
									}
								}
							}
						}
						JOINT RightShoulder_virtual
						{
							OFFSET 0.000000 0.000000 0.000000
							CHANNELS 3 Xrotation Yrotation Zrotation
							JOINT RightShoulder
							{
								OFFSET -7.570500 7.247704 -3.868750
								CHANNELS 3 Xrotation Yrotation Zrotation
								JOINT RightShoulder_split
								{
									OFFSET -7.570500 7.247704 -3.868750
									CHANNELS 3 Xrotation Yrotation Zrotation
									JOINT RightArm
									{
										OFFSET -9.308998 -2.777710 0.208500
										CHANNELS 3 Xrotation Yrotation Zrotation
										JOINT RightForeArm
										{
											OFFSET -29.972300 0.000000 0.000000
											CHANNELS 3 Xrotation Yrotation Zrotation
											JOINT RightHand
											{
												OFFSET -26.026505 0.000000 0.000000
												CHANNELS 3 Xrotation Yrotation Zrotation
												End Site
												{
													OFFSET 0 0 0
												}
											}
										}
									}
								}
							}
						}
					}
				}
			}
		}
	}
}
MOTION
Frames: 8
Frame Time: 0.03333333
-0.243139 124.053680 17.148115 0.000000 0.000000 0.000000 -88.438560 -7.800918 -0.896271 -7.686265 20.290754 15.821838 5.719525 0.093431 3.929725 10.522424 29.094167 -19.441707 -4.913885 -0.070516 1.504757 0.000000 0.000000 0.000000 -90.420865 -5.307545 0.261570 -11.913880 -18.648928 -20.026845 16.692680 -1.920610 -5.065827 16.196412 -33.769978 26.805270 -11.067738 1.332648 -1.935201 0.000000 0.000000 0.000000 -87.563148 -7.764637 -2.289385 1.594418 -0.363268 -0.458709 -1.211365 0.323852 -0.251366 0.612116 0.812916 -0.346574 0.000000 0.000000 0.000000 -1.100916 0.525403 -0.329611 -5.091661 3.979673 -8.412854 3.737897 8.010456 -11.195212 0.000000 0.000000 0.000000 -0.247439 0.511753 -0.089791 0.349874 -6.119659 -0.569575 -0.130503 1.436774 -2.966877 45.000739 -42.006688 -31.543586 4.637658 -86.263670 4.016322 0.000000 0.000000 0.000000 -0.171815 0.729568 -0.653566 0.340798 0.314267 2.300115 7.705396 7.673525 -0.803855 -4.542651 1.058135 81.332206 -179.379236 54.436895 -179.965376 0.000000 0.000000 0.000000 
-0.216736 124.057281 17.152203 0.000000 0.000000 0.000000 -88.443300 -7.789909 -0.881998 -7.689091 20.267044 15.822126 5.707921 0.077208 3.912776 10.522675 29.083000 -19.432882 -4.911012 -0.072169 1.506765 0.000000 0.000000 0.000000 -90.413092 -5.303318 0.270519 -11.923056 -18.642127 -20.042461 16.681412 -1.918820 -5.071944 16.206762 -33.766796 26.808764 -11.081496 1.327448 -1.931624 0.000000 0.000000 0.000000 -87.558094 -7.751917 -2.290039 1.599840 -0.359251 -0.442201 -1.207979 0.325970 -0.249196 0.632741 0.798253 -0.331340 0.000000 0.000000 0.000000 -1.104997 0.530990 -0.328197 -5.036153 4.039420 -8.454967 3.818219 8.115641 -11.192394 0.000000 0.000000 0.000000 -0.241024 0.512698 -0.100762 0.349459 -6.127618 -0.578804 -0.112026 1.492432 -2.929725 44.978418 -42.020717 -31.557933 4.664455 -86.263568 4.043961 0.000000 0.000000 0.000000 -0.158508 0.742862 -0.643326 0.351902 0.314733 2.308394 7.700509 7.658390 -0.840623 -4.507317 1.108517 81.281519 -179.406106 54.448875 -179.931143 0.000000 0.000000 0.000000 
-0.190505 124.062134 17.154387 0.000000 0.000000 0.000000 -88.443997 -7.781316 -0.862657 -7.684760 20.242302 15.814975 5.687850 0.053124 3.896110 10.522021 29.069029 -19.415434 -4.899700 -0.075398 1.504030 0.000000 0.000000 0.000000 -90.402526 -5.302929 0.282308 -11.941783 -18.650023 -20.068955 16.678682 -1.915200 -5.083784 16.196311 -33.771433 26.799495 -11.109446 1.323675 -1.926277 0.000000 0.000000 0.000000 -87.552377 -7.751845 -2.297550 1.608385 -0.360498 -0.414632 -1.207470 0.327687 -0.245021 0.644073 0.780900 -0.302813 0.000000 0.000000 0.000000 -1.111448 0.535642 -0.326338 -5.046551 4.079226 -8.443704 4.183715 8.237356 -11.376822 0.000000 0.000000 0.000000 -0.235340 0.509637 -0.108729 0.344226 -6.122503 -0.601299 -0.079778 1.552339 -2.868184 44.932085 -42.023832 -31.615918 4.551958 -86.262311 3.935530 0.000000 0.000000 0.000000 -0.146956 0.753333 -0.632735 0.364979 0.308091 2.344910 7.682303 7.647516 -0.871426 -4.497995 1.218940 81.194195 -179.427444 54.498995 -179.891145 0.000000 0.000000 0.000000 
-0.166005 124.067207 17.150772 0.000000 0.000000 0.000000 -88.440520 -7.777137 -0.841353 -7.676717 20.216940 15.803849 5.665624 0.020276 3.882141 10.518293 29.052418 -19.395166 -4.882127 -0.079704 1.496805 0.000000 0.000000 0.000000 -90.389535 -5.303472 0.297953 -11.971947 -18.672595 -20.103188 16.685467 -1.906896 -5.098912 16.173181 -33.778270 26.784935 -11.152986 1.321284 -1.919028 0.000000 0.000000 0.000000 -87.548101 -7.763103 -2.312359 1.617412 -0.367387 -0.380522 -1.210943 0.328783 -0.239309 0.643428 0.761553 -0.275348 0.000000 0.000000 0.000000 -1.121763 0.539948 -0.322426 -5.119508 4.099670 -8.394116 4.820420 8.363829 -11.740188 0.000000 0.000000 0.000000 -0.229631 0.502712 -0.113645 0.336564 -6.109821 -0.642535 -0.038673 1.605451 -2.782954 44.872400 -42.017148 -31.695127 4.297148 -86.241151 3.689894 0.000000 0.000000 0.000000 -0.137502 0.759761 -0.623539 0.379827 0.286919 2.398758 7.657399 7.651227 -0.898976 -4.506887 1.369812 81.084987 -179.432594 54.546898 -179.859221 0.000000 0.000000 0.000000 
-0.145266 124.071465 17.140911 0.000000 0.000000 0.000000 -88.438054 -7.780753 -0.823137 -7.668234 20.193652 15.792159 5.644987 -0.022513 3.871623 10.513004 29.030490 -19.380143 -4.863024 -0.084580 1.486219 0.000000 0.000000 0.000000 -90.373074 -5.299332 0.321686 -12.007221 -18.710408 -20.140191 16.696061 -1.889575 -5.116681 16.143321 -33.782669 26.769466 -11.222010 1.320660 -1.910707 0.000000 0.000000 0.000000 -87.548928 -7.786302 -2.335059 1.624304 -0.380120 -0.345043 -1.216638 0.329457 -0.233303 0.646792 0.747579 -0.253507 0.000000 0.000000 0.000000 -1.133963 0.543448 -0.316518 -5.245002 4.107477 -8.326833 5.676086 8.485008 -12.261189 0.000000 0.000000 0.000000 -0.222193 0.493387 -0.116613 0.327281 -6.087910 -0.708753 -0.005570 1.640638 -2.683146 44.807919 -42.006852 -31.770792 3.928087 -86.191004 3.335697 0.000000 0.000000 0.000000 -0.129094 0.762971 -0.617114 0.393713 0.245939 2.455906 7.632076 7.669976 -0.919606 -4.526021 1.533485 80.976831 -179.416898 54.562775 -179.844454 0.000000 0.000000 0.000000 
-0.129196 124.072739 17.133287 0.000000 0.000000 0.000000 -88.441599 -7.792403 -0.810857 -7.660955 20.176608 15.782783 5.627835 -0.074172 3.863415 10.507064 29.002902 -19.373760 -4.845819 -0.089882 1.473513 0.000000 0.000000 0.000000 -90.357085 -5.288210 0.353339 -12.043158 -18.762702 -20.174526 16.706921 -1.865306 -5.135839 16.111293 -33.785664 26.750829 -11.314876 1.321558 -1.901473 0.000000 0.000000 0.000000 -87.557329 -7.817986 -2.361291 1.626125 -0.396343 -0.314574 -1.222087 0.330315 -0.227195 0.650891 0.746082 -0.246624 0.000000 0.000000 0.000000 -1.146401 0.546459 -0.309139 -5.407210 4.112766 -8.263178 6.683461 8.607633 -12.903555 0.000000 0.000000 0.000000 -0.214022 0.483845 -0.117694 0.317882 -6.055562 -0.796763 0.008685 1.646206 -2.590414 44.739378 -42.003324 -31.823682 3.546422 -86.123290 2.972193 0.000000 0.000000 0.000000 -0.122187 0.763915 -0.614076 0.401987 0.181483 2.501226 7.618708 7.706207 -0.937220 -4.543870 1.684992 80.884705 -179.384168 54.542947 -179.848320 0.000000 0.000000 0.000000 
-0.118669 124.070412 17.129557 0.000000 0.000000 0.000000 -88.450485 -7.809352 -0.803657 -7.655689 20.173722 15.778056 5.614266 -0.128701 3.856184 10.497629 28.973215 -19.371779 -4.830294 -0.095060 1.459044 0.000000 0.000000 0.000000 -90.346553 -5.274552 0.386253 -12.082075 -18.827954 -20.204290 16.718105 -1.839265 -5.153079 16.079613 -33.792644 26.723931 -11.415372 1.323495 -1.890882 0.000000 0.000000 0.000000 -87.570948 -7.855813 -2.387731 1.624392 -0.412792 -0.293235 -1.226110 0.331574 -0.222229 0.656320 0.769026 -0.242783 0.000000 0.000000 0.000000 -1.160565 0.549312 -0.300795 -5.594758 4.122526 -8.218734 7.745222 8.730890 -13.607864 0.000000 0.000000 0.000000 -0.206122 0.476497 -0.117005 0.309996 -6.007869 -0.902826 0.013061 1.640090 -2.506018 44.675663 -42.020003 -31.838264 3.211974 -86.057371 2.655464 0.000000 0.000000 0.000000 -0.114086 0.763941 -0.614086 0.402958 0.097684 2.527094 7.621183 7.750294 -0.963439 -4.555135 1.812975 80.826205 -179.345495 54.513024 -179.865437 0.000000 0.000000 0.000000 
-0.112078 124.068886 17.127563 0.000000 0.000000 0.000000 -88.460246 -7.825857 -0.799111 -7.655183 20.191795 15.779636 5.601789 -0.181010 3.849814 10.481755 28.945225 -19.368912 -4.815428 -0.099096 1.442972 0.000000 0.000000 0.000000 -90.340706 -5.261977 0.415327 -12.124678 -18.903747 -20.228298 16.729809 -1.813935 -5.166002 16.050620 -33.806482 26.690028 -11.510573 1.325716 -1.878647 0.000000 0.000000 0.000000 -87.587682 -7.895720 -2.408833 1.623082 -0.427200 -0.282266 -1.226891 0.333462 -0.218311 0.650403 0.796419 -0.235702 0.000000 0.000000 0.000000 -1.175898 0.552406 -0.293160 -5.800589 4.140658 -8.196728 8.751901 8.852079 -14.308869 0.000000 0.000000 0.000000 -0.201275 0.473098 -0.113835 0.304273 -5.938117 -1.012404 0.010640 1.620732 -2.434364 44.637663 -42.055107 -31.801791 2.934271 -86.005906 2.391725 0.000000 0.000000 0.000000 -0.103235 0.764604 -0.615733 0.394102 0.000563 2.531353 7.637018 7.797069 -0.980329 -4.564387 1.907754 80.808057 -179.312410 54.510340 -179.889534 0.000000 0.000000 0.000000 
